<svg width="308" height="632" viewBox="0 0 308 632" fill="none" xmlns="http://www.w3.org/2000/svg">
<path d="M1.125 54.5C1.125 24.9528 25.0778 1 54.625 1H253.625C283.172 1 307.125 24.9528 307.125 54.5V577.5C307.125 607.047 283.172 631 253.625 631H54.625C25.0778 631 1.125 607.047 1.125 577.5V54.5Z" stroke="#737373"/>
<path d="M12.125 55.5C12.125 30.9233 32.0483 11 56.625 11H80.625C86.9763 11 92.125 16.1487 92.125 22.5C92.125 30.5081 98.6169 37 106.625 37H201.625C209.633 37 216.125 30.5081 216.125 22.5C216.125 16.1487 221.274 11 227.625 11H251.625C276.202 11 296.125 30.9233 296.125 55.5V576.5C296.125 601.077 276.202 621 251.625 621H56.625C32.0483 621 12.125 601.077 12.125 576.5V55.5Z" fill="white" stroke="#737373"/>
</svg>
